<svg width="204" height="199.253" xmlns="http://www.w3.org/2000/svg"><path d="M70.55 156.165c0 .766-.88 1.38-1.992 1.38-1.264.114-2.145-.499-2.145-1.38 0-.766.881-1.379 1.992-1.379 1.15-.115 2.145.498 2.145 1.38zm-11.913-1.723c-.268.766.498 1.647 1.647 1.877.996.383 2.145 0 2.375-.767.23-.766-.498-1.647-1.647-1.992-.996-.268-2.107.115-2.375.882zm16.932-.652c-1.111.268-1.877.996-1.763 1.877.115.766 1.111 1.264 2.26.996 1.111-.268 1.878-.996 1.763-1.762-.115-.728-1.15-1.226-2.26-1.11zM100.774 7C47.644 7 7 47.337 7 100.468c0 42.482 26.738 78.834 64.93 91.629 4.903.88 6.626-2.145 6.626-4.635 0-2.375-.114-15.476-.114-23.52 0 0-26.815 5.745-32.446-11.416 0 0-4.367-11.147-10.65-14.02 0 0-8.771-6.014.614-5.9 0 0 9.538.767 14.786 9.884 8.39 14.786 22.448 10.534 27.925 8.006.881-6.13 3.371-10.381 6.13-12.91-21.414-2.374-43.019-5.477-43.019-42.328 0-10.534 2.912-15.82 9.04-22.562-.995-2.49-4.251-12.756.997-26.01 8.006-2.49 26.431 10.342 26.431 10.342 7.661-2.145 15.897-3.256 24.056-3.256 8.16 0 16.396 1.111 24.057 3.256 0 0 18.425-12.87 26.431-10.343 5.248 13.293 1.992 23.52.996 26.01 6.13 6.78 9.883 12.067 9.883 22.563 0 36.966-22.562 39.915-43.975 42.329 3.524 3.026 6.512 8.772 6.512 17.774 0 12.91-.115 28.883-.115 32.024 0 2.49 1.762 5.516 6.627 4.635C171.028 179.302 197 142.95 197 100.468 197 47.337 153.905 7 100.774 7Zm-56.54 132.119c-.498.383-.383 1.264.268 1.992.613.613 1.494.88 1.992.383.498-.383.383-1.264-.268-1.992-.613-.613-1.494-.881-1.992-.383zm-4.137-3.103c-.268.498.115 1.111.88 1.494.614.383 1.38.268 1.648-.268.268-.498-.115-1.11-.881-1.494-.766-.23-1.38-.115-1.647.268zm12.411 13.637c-.613.498-.383 1.647.498 2.375.881.881 1.992.996 2.49.383.498-.498.268-1.647-.498-2.375-.843-.88-1.992-.996-2.49-.383zm-4.367-5.63c-.613.382-.613 1.378 0 2.26.613.88 1.647 1.263 2.145.88.613-.498.613-1.494 0-2.375-.536-.88-1.532-1.264-2.145-.766z" style="stroke-width:.383065"/></svg>
