<svg version="1.1" id="Calque_1" x="0" y="0" xml:space="preserve" width="130.688" height="142.1"
   xmlns:xlink="http://www.w3.org/1999/xlink"
   xmlns="http://www.w3.org/2000/svg">
   <style type="text/css" id="style2">.st1{clip-path:url(#SVGID_2_);fill:#367591}</style>
   <g id="g102" transform="translate(-68.7 -67.2)">
      <defs id="defs5">
         <path id="SVGID_1_" d="M68.6 67.2h358.6v144H68.6z"/>
      </defs>
      <clipPath id="SVGID_2_">
         <use xlink:href="#SVGID_1_" style="overflow:visible" id="use7" x="0" y="0" width="100%" height="100%"/>
      </clipPath>
      <path d="M163.9 184.7c15.3-4 26-17.9 26-33.7 0-15.8-10.7-29.7-26-33.7-3.2-.8-6.5 1.1-7.3 4.3-.8 3.2 1.1 6.5 4.3 7.3 10.1 2.7 17.1 11.8 17.1 22.2 0 10.4-7 19.5-17.1 22.2-3.2.8-5.1 4.1-4.3 7.3.7 2.7 3.1 4.5 5.8 4.5.5-.2 1-.3 1.5-.4m-13.2-4.3c.8-3.2-1.1-6.5-4.3-7.3-10.1-2.7-17.1-11.8-17.1-22.2 0-10.4 7-19.5 17.1-22.2 3.2-.8 5.1-4.1 4.3-7.3-.8-3.2-4.1-5.1-7.3-4.3-15.3 4-26 17.9-26 33.7 0 15.8 10.7 29.7 26 33.7.5.1 1 .2 1.5.2 2.7.2 5.1-1.6 5.8-4.3m3.5-30.4c0-3.3-2.7-6-6-6h-7.6c-3.3 0-6 2.7-6 6s2.7 6 6 6h7.6c3.3 0 6-2.7 6-6m-61.6 51.1c2.7-1.9 3.3-5.7 1.4-8.4-8.8-12.2-13.4-26.7-13.4-41.8 0-39.6 32.2-71.8 71.8-71.8 13.4 0 26.5 3.7 37.9 10.8 2.8 1.8 6.5.9 8.2-1.9 1.7-2.8.9-6.5-1.9-8.2-13.2-8.3-28.5-12.6-44.2-12.6-46.2 0-83.7 37.6-83.7 83.7 0 17.6 5.4 34.5 15.7 48.8 1.2 1.6 3 2.5 4.9 2.5 1.1 0 2.3-.3 3.3-1.1m51.7 8.2c-.3 0-.6 0-.9-.1-28.6-4.3-50.1-29.4-50.1-58.3s21.5-54 50-58.3c3.3-.5 6.3 1.7 6.8 5s-1.7 6.3-5 6.8c-22.7 3.5-39.9 23.5-39.9 46.5 0 23.1 17.2 43.1 39.9 46.5 3.3.5 5.5 3.5 5 6.8-.3 3-2.9 5.1-5.8 5.1" clip-path="url(#SVGID_2_)" id="path10" style="fill:#e3c0fa;fill-opacity:1;clip-path:url(#SVGID_2_)"/>
   </g>
</svg>
