<svg xmlns="http://www.w3.org/2000/svg" width="348.848" height="105.57">
   <defs>
      <clipPath id="a">
         <path d="M0 143.4h337.638V0H0Z"/>
      </clipPath>
   </defs>
   <g clip-path="url(#a)" transform="matrix(1.25 0 0 -1.25 -36.576 142.482)">
      <path fill="#3d3d3c" d="M240.39 53.58h8.696c-.432 2.508-1.73 3.935-4.24 3.935-2.595 0-3.936-1.557-4.455-3.936m14.54-4.24h-14.67c.35-2.86 1.78-4.59 4.76-4.59 2.12 0 3.51.73 5.02 2.98l4.46-2.21c-1.6-3.46-5.01-5.63-9.34-5.63-7.57 0-11.16 4.8-11.16 11.24 0 6.4 4.03 11.29 10.95 11.29 6.28 0 10.13-4.41 10.13-11.25 0-.61-.04-1.21-.13-1.86m-33.56-1.42v24.88h6.32v-24.9c0-1.78.91-2.64 2.25-2.64.83 0 1.43.21 1.95.77l3.03-4.5c-1.21-1.04-2.85-1.6-4.93-1.6-5.88 0-8.61 3.2-8.61 8m-14.6-3.378c1.82 0 3.25.91 4.42 1.947v2.207l-1.73.35c-4.19.82-5.32-.69-5.32-2.16 0-1.42 1.08-2.33 2.64-2.33m10.56 9.56V40.35h-5.32l-.302 2.12c-2.12-1.644-4.543-2.553-7.14-2.553-4.11 0-7.01 2.55-7.01 6.617 0 4.023 3.59 7.31 10.556 6.23l3.07-.477v1.86c0 2.51-2.12 3.505-4.283 3.505-1.903 0-3.763-.734-5.32-2.594l-3.764 3.59c2.38 2.598 5.15 3.765 9.69 3.765 5.668 0 9.82-2.55 9.82-8.304m-20.31-12.59c-1.21-1.04-2.852-1.6-4.93-1.6-5.882 0-8.61 3.2-8.61 8v9.34h-2.6v4.71h2.597v7.35h6.32v-7.36h5.4v-4.71h-5.41v-9.39c0-1.78.91-2.64 2.25-2.64.82 0 1.43.21 1.946.77l3.03-4.5zm-25.22-1.17h6.32v21.63h-6.32V40.34Zm10.93 44.28c-2.12 0-3.94 1.38-4.67 3.46v4.5c.738 2.07 2.55 3.5 4.67 3.5 3.03 0 5.06-2.56 5.06-5.76 0-3.2-2.03-5.71-5.06-5.71m1.25 16.96c-2.42 0-4.41-.86-5.92-2.33v1.9h-6.23V72.42c.87.7 1.96 1.125 3.13 1.125s2.24-.397 3.1-1.05v8.93c1.515-1.47 3.505-2.336 5.927-2.336 5.88 0 10.033 4.93 10.033 11.24 0 6.31-4.155 11.25-10.04 11.25m-5.432-34.17c0 1.92-1.646 3.55-3.59 3.55-1.92 0-3.55-1.63-3.55-3.55s1.63-3.55 3.55-3.55c1.944 0 3.59 1.63 3.59 3.55M160.8 48.87v4.58c-.78 2.03-2.55 3.46-4.63 3.46-3.07 0-5.06-2.56-5.06-5.76 0-3.2 1.99-5.71 5.06-5.71 2.08 0 3.85 1.38 4.63 3.42m6.27 13.11V40.43c0-6.576-4.46-10.9-11.12-10.9-2.42 0-4.457.475-6.27 1.297v6.012c1.73-1.3 3.72-2.12 6.32-2.12s4.81 1.81 4.81 5.71v1.81c-1.52-1.47-3.51-2.34-5.89-2.34-5.924 0-10.034 4.93-10.034 11.24 0 6.31 4.11 11.25 10.036 11.25 2.556 0 4.676-1 6.23-2.68l.306 2.25h5.627zm-31.62-21.63h6.315v21.63h-6.314V40.34Zm3.16 23.52c1.944 0 3.59 1.6 3.59 3.55 0 1.95-1.646 3.55-3.59 3.55-1.906 0-3.55-1.6-3.55-3.55 0-1.95 1.64-3.55 3.543-3.55m-13.24-15v4.58c-.78 2.03-2.55 3.46-4.63 3.46-3.07 0-5.06-2.556-5.06-5.757 0-3.2 1.99-5.71 5.06-5.71 2.08 0 3.85 1.386 4.63 3.42m6.23 23.922V40.34l-5.58-.044-.345 2.25c-1.56-1.644-3.68-2.64-6.19-2.64-5.926 0-10.036 4.933-10.036 11.248 0 6.317 4.11 11.247 10.037 11.247 2.38 0 4.37-.86 5.88-2.33v12.72h6.23zM293.68 92.75h8.695c-.433 2.51-1.73 3.938-4.24 3.938-2.595 0-3.937-1.558-4.455-3.937m14.535-4.24H293.55c.348-2.85 1.775-4.58 4.76-4.58 2.12 0 3.504.74 5.018 2.99l4.455-2.2c-1.6-3.46-5.018-5.62-9.344-5.62-7.57 0-11.16 4.8-11.16 11.25 0 6.41 4.02 11.29 10.94 11.29 6.27 0 10.12-4.41 10.12-11.24 0-.6-.05-1.21-.13-1.86m-20.54-7.83c-1.21-1.04-2.86-1.6-4.93-1.6-5.89 0-8.61 3.2-8.61 8v9.35h-2.6v4.718h2.59v7.35h6.31v-7.35h5.4v-4.72h-5.41v-9.39c0-1.775.91-2.64 2.25-2.64.82 0 1.42.216 1.94.78l3.03-4.5zm-18.05 12.5V79.52h-6.32v12.89c0 2.208-1.65 3.678-4.03 3.678-2.47 0-4.41-1.773-4.41-4.023V79.518h-6.32v21.63h5.66l.34-2.51c1.64 1.818 3.93 2.942 6.57 2.942 5.06 0 8.48-3.287 8.48-8.392m-31.78-13.67h6.313v21.63h-6.317v-21.63ZM241 103.04c1.945 0 3.59 1.6 3.59 3.55 0 1.95-1.645 3.55-3.59 3.55-1.906 0-3.55-1.6-3.55-3.55 0-1.95 1.645-3.54 3.55-3.54m-21-10.29h8.695c-.433 2.51-1.73 3.936-4.24 3.936-2.595 0-3.936-1.557-4.455-3.936m14.535-4.24H219.87c.346-2.855 1.774-4.585 4.76-4.585 2.118 0 3.503.736 5.017 2.985l4.455-2.205c-1.6-3.46-5.02-5.624-9.345-5.624-7.57 0-11.16 4.8-11.16 11.24 0 6.4 4.023 11.29 10.944 11.29 6.27 0 10.12-4.41 10.12-11.25 0-.6-.04-1.21-.13-1.86m-20.05 11.2-2.64-4.62c-.6.43-1.55 1-3.37 1-2.59 0-5.1-2.16-5.1-5.75v-10.8h-6.31v21.63h5.67l.35-3.33c1.47 2.29 3.68 3.76 6.19 3.76 2.51 0 3.94-.6 5.24-1.86M167.7 93.3V79.52h-6.317V92.5c0 2.12-1.43 3.59-3.59 3.59-2.25 0-3.98-1.775-3.98-4.025V79.518h-6.32v12.978c0 2.12-1.426 3.59-3.545 3.59a3.99 3.99 0 0 1-4.025-4.023V79.518h-6.32v21.63h5.664l.303-2.293c1.51 1.687 3.63 2.725 6.14 2.725 2.983 0 5.362-1.254 6.75-3.374 1.684 2.076 4.193 3.374 7.134 3.374 4.89 0 8.09-3.287 8.09-8.306m-51.82-.518h8.69c-.43 2.51-1.73 3.936-4.24 3.936-2.595 0-3.936-1.557-4.455-3.936m14.53-4.24h-14.66c.34-2.855 1.77-4.585 4.76-4.585 2.12 0 3.5.74 5.02 2.99l4.45-2.2c-1.6-3.46-5.02-5.62-9.35-5.62-7.57 0-11.16 4.8-11.16 11.25 0 6.4 4.025 11.29 10.946 11.29 6.28 0 10.13-4.41 10.13-11.24 0-.6-.046-1.21-.13-1.86" style="fill:#367591;fill-opacity:1"/>
      <path fill="#de3a23" d="M79.69 51.84c8.107 2.136 13.768 9.48 13.768 17.856 0 8.376-5.66 15.72-13.768 17.857a3.169 3.169 0 0 1-3.87-2.254 3.162 3.162 0 0 1 2.256-3.87 12.155 12.155 0 0 0 9.05-11.74c0-5.51-3.722-10.33-9.05-11.74a3.171 3.171 0 0 1-2.255-3.87 3.176 3.176 0 0 1 3.87-2.26m-6.98 2.25c.45 1.69-.56 3.42-2.25 3.87-5.33 1.4-9.05 6.23-9.05 11.73S65.13 80 70.46 81.4a3.174 3.174 0 0 1 2.26 3.87 3.158 3.158 0 0 1-3.87 2.252c-8.1-2.14-13.76-9.48-13.76-17.86 0-8.38 5.66-15.72 13.77-17.86a3.167 3.167 0 0 1 3.87 2.257m1.83 16.08c0 1.75-1.416 3.16-3.164 3.16h-4.01a3.17 3.17 0 0 1-.004-6.338h4.01c1.75 0 3.17 1.416 3.17 3.165m-32.59-27c1.42 1.02 1.745 3 .725 4.42-4.652 6.475-7.112 14.13-7.112 22.133 0 20.94 17.036 37.974 37.975 37.974 7.115 0 14.05-1.98 20.055-5.72a3.164 3.164 0 1 1 3.348 5.373 44.188 44.188 0 0 1-23.402 6.68c-24.43 0-44.3-19.876-44.3-44.307 0-9.338 2.88-18.27 8.31-25.83a3.171 3.171 0 0 1 4.42-.725m27.36-4.35c-.16 0-.32.01-.48.04-15.12 2.29-26.52 15.56-26.52 30.88 0 15.29 11.38 28.56 26.47 30.87 1.73.26 3.35-.92 3.61-2.65.27-1.72-.92-3.34-2.65-3.61-12.03-1.85-21.1-12.42-21.1-24.61 0-12.21 9.09-22.79 21.14-24.61a3.17 3.17 0 0 0 2.66-3.607 3.173 3.173 0 0 0-3.13-2.69" style="fill:#d6084f;fill-opacity:1"/>
   </g>
</svg>
