<svg xml:space="preserve" width="431.002" height="168.575" xmlns:xlink="http://www.w3.org/1999/xlink" xmlns="http://www.w3.org/2000/svg"><g transform="translate(-56.7 -55.2)"><defs><path id="a" d="M68.6 67.2h358.6v144H68.6z"/></defs><clipPath id="b"><use xlink:href="#a" style="overflow:visible" width="100%" height="100%"/></clipPath><path d="M163.9 184.7c15.3-4 26-17.9 26-33.7 0-15.8-10.7-29.7-26-33.7-3.2-.8-6.5 1.1-7.3 4.3-.8 3.2 1.1 6.5 4.3 7.3 10.1 2.7 17.1 11.8 17.1 22.2 0 10.4-7 19.5-17.1 22.2-3.2.8-5.1 4.1-4.3 7.3.7 2.7 3.1 4.5 5.8 4.5.5-.2 1-.3 1.5-.4m-13.2-4.3c.8-3.2-1.1-6.5-4.3-7.3-10.1-2.7-17.1-11.8-17.1-22.2 0-10.4 7-19.5 17.1-22.2 3.2-.8 5.1-4.1 4.3-7.3-.8-3.2-4.1-5.1-7.3-4.3-15.3 4-26 17.9-26 33.7 0 15.8 10.7 29.7 26 33.7.5.1 1 .2 1.5.2 2.7.2 5.1-1.6 5.8-4.3m3.5-30.4c0-3.3-2.7-6-6-6h-7.6c-3.3 0-6 2.7-6 6s2.7 6 6 6h7.6c3.3 0 6-2.7 6-6m-61.6 51.1c2.7-1.9 3.3-5.7 1.4-8.4-8.8-12.2-13.4-26.7-13.4-41.8 0-39.6 32.2-71.8 71.8-71.8 13.4 0 26.5 3.7 37.9 10.8 2.8 1.8 6.5.9 8.2-1.9 1.7-2.8.9-6.5-1.9-8.2-13.2-8.3-28.5-12.6-44.2-12.6-46.2 0-83.7 37.6-83.7 83.7 0 17.6 5.4 34.5 15.7 48.8 1.2 1.6 3 2.5 4.9 2.5 1.1 0 2.3-.3 3.3-1.1m51.7 8.2c-.3 0-.6 0-.9-.1-28.6-4.3-50.1-29.4-50.1-58.3s21.5-54 50-58.3c3.3-.5 6.3 1.7 6.8 5s-1.7 6.3-5 6.8c-22.7 3.5-39.9 23.5-39.9 46.5 0 23.1 17.2 43.1 39.9 46.5 3.3.5 5.5 3.5 5 6.8-.3 3-2.9 5.1-5.8 5.1" clip-path="url(#b)" style="clip-path:url(#b);fill:#1c0d26"/><path d="M238.7 92.7h-15.5c.4 3 1.9 4.9 5 4.9 2.2 0 3.7-.8 5.3-3.2l4.7 2.3c-1.7 3.7-5.3 6-9.9 6-8 0-11.8-5.1-11.8-11.9 0-6.8 4.3-12 11.6-12 6.7 0 10.7 4.7 10.7 11.9 0 .7 0 1.3-.1 2m-15.4-4.4h9.2c-.5-2.7-1.8-4.2-4.5-4.2s-4.2 1.6-4.7 4.2m54.9-.6v14.6h-6.7V88.5c0-2.2-1.5-3.8-3.8-3.8-2.4 0-4.2 1.9-4.2 4.3v13.3h-6.7V88.5c0-2.2-1.5-3.8-3.8-3.8-2.4 0-4.3 1.9-4.3 4.3v13.3H242V79.4h6l.3 2.4c1.6-1.8 3.8-2.9 6.5-2.9 3.2 0 5.7 1.3 7.2 3.6 1.8-2.2 4.4-3.6 7.6-3.6 5.2 0 8.6 3.5 8.6 8.8m49.6-6.8-2.8 4.9c-.6-.5-1.6-1.1-3.6-1.1-2.7 0-5.4 2.3-5.4 6.1v11.4h-6.7V79.3h6l.4 3.5c1.6-2.4 3.9-4 6.6-4 2.7 0 4.1.7 5.5 2.1M349 92.7h-15.5c.4 3 1.9 4.9 5 4.9 2.2 0 3.7-.8 5.3-3.2l4.7 2.3c-1.7 3.7-5.3 6-9.9 6-8 0-11.8-5.1-11.8-11.9 0-6.8 4.3-12 11.6-12 6.6 0 10.7 4.7 10.7 11.9 0 .7 0 1.4-.1 2m-15.4-4.5h9.2c-.5-2.7-1.8-4.2-4.5-4.2-2.7.1-4.1 1.7-4.7 4.2m22.3-10.8c2.1 0 3.8-1.7 3.8-3.8 0-2.1-1.7-3.8-3.8-3.8-2 0-3.8 1.7-3.8 3.8 0 2.1 1.7 3.8 3.8 3.8m-3.4 24.9h6.7V79.4h-6.7zm33.7-14.5v14.5h-6.7V88.6c0-2.3-1.7-3.9-4.3-3.9-2.6 0-4.7 1.9-4.7 4.3v13.3h-6.7V79.4h6l.4 2.7c1.7-1.9 4.2-3.1 7-3.1 5.3-.1 8.9 3.4 9 8.8m19.1 13.2c-1.3 1.1-3 1.7-5.2 1.7-6.2 0-9.1-3.4-9.1-8.5v-9.9h-2.8v-5h2.7v-7.8h6.7v7.8h5.7v5h-5.7v9.9c0 1.9 1 2.8 2.4 2.8.9 0 1.5-.2 2.1-.8zm21.7-8.2h-15.5c.4 3 1.9 4.9 5 4.9 2.2 0 3.7-.8 5.3-3.2l4.7 2.3c-1.7 3.7-5.3 6-9.9 6-8 0-11.8-5.1-11.8-11.9 0-6.8 4.3-12 11.6-12 6.6 0 10.7 4.7 10.7 11.9.1.6 0 1.2-.1 2m-15.3-4.5h9.2c-.5-2.7-1.8-4.2-4.5-4.2-2.8 0-4.2 1.6-4.7 4.2M240 109.4v34.4h-5.9l-.4-2.4c-1.7 1.7-3.9 2.8-6.6 2.8-6.3 0-10.6-5.2-10.6-11.9s4.4-11.9 10.6-11.9c2.5 0 4.6.9 6.2 2.5v-13.5zm-6.6 25.4v-4.9c-.8-2.2-2.7-3.7-4.9-3.7-3.3 0-5.4 2.7-5.4 6.1 0 3.4 2.1 6 5.4 6 2.2.1 4-1.4 4.9-3.5m14-15.9c2.1 0 3.8-1.7 3.8-3.8 0-2.1-1.7-3.8-3.8-3.8-2 0-3.8 1.7-3.8 3.8 0 2.1 1.8 3.8 3.8 3.8m-3.4 24.9h6.7v-22.9H244Zm33.5-22.9v22.8c0 7-4.7 11.5-11.8 11.5-2.6 0-4.7-.5-6.6-1.4v-6.4c1.8 1.4 3.9 2.2 6.7 2.2 2.8 0 5.1-1.9 5.1-6v-1.9c-1.6 1.6-3.7 2.5-6.2 2.5-6.3 0-10.6-5.2-10.6-11.9s4.4-11.9 10.6-11.9c2.7 0 5 1.1 6.6 2.8l.3-2.4zm-6.6 13.8v-4.9c-.8-2.2-2.7-3.7-4.9-3.7-3.3 0-5.4 2.7-5.4 6.1 0 3.4 2.1 6 5.4 6 2.2.2 4.1-1.3 4.9-3.5m18.8-19.6c0-2-1.7-3.8-3.8-3.8-2 0-3.8 1.7-3.8 3.8 0 2 1.7 3.8 3.8 3.8 2.1 0 3.8-1.8 3.8-3.8m5.8-36.2c-2.6 0-4.7.9-6.3 2.5v-2h-6.6v30.4c.9-.7 2.1-1.2 3.3-1.2 1.2 0 2.4.4 3.3 1.1v-9.5c1.6 1.6 3.7 2.5 6.3 2.5 6.2 0 10.6-5.2 10.6-11.9s-4.4-11.9-10.6-11.9m-1.3 18c-2.2 0-4.2-1.5-4.9-3.7v-4.8c.8-2.2 2.7-3.7 4.9-3.7 3.2 0 5.4 2.7 5.4 6.1-.1 3.4-2.2 6.1-5.4 6.1m-11.6 46.9h6.7v-22.9h-6.7zm26.7-1.3c-1.3 1.1-3 1.7-5.2 1.7-6.2 0-9.1-3.4-9.1-8.5v-9.9h-2.8v-5h2.8V113h6.7v7.8h5.7v5h-5.7v9.9c0 1.9 1 2.8 2.4 2.8.9 0 1.5-.2 2.1-.8zm21.5-13.3v14.6h-5.6l-.3-2.2c-2.2 1.7-4.8 2.7-7.6 2.7-4.4 0-7.4-2.7-7.4-7s3.8-7.7 11.2-6.6l3.3.5v-2c0-2.7-2.2-3.7-4.5-3.7-2 0-4 .8-5.6 2.7l-4-3.8c2.5-2.8 5.5-4 10.3-4 5.8 0 10.2 2.7 10.2 8.8m-11.2 10.1c1.9 0 3.4-1 4.7-2.1v-2.3l-1.8-.4c-4.4-.9-5.6.7-5.6 2.3-.1 1.6 1.1 2.5 2.7 2.5m15.5-3.5v-26.4h6.7v26.4c0 1.9 1 2.8 2.4 2.8.9 0 1.5-.2 2.1-.8l3.2 4.8c-1.3 1.1-3 1.7-5.2 1.7-6.3-.1-9.2-3.4-9.2-8.5m35.5-1.6h-15.5c.4 3 1.9 4.9 5 4.9 2.2 0 3.7-.8 5.3-3.2l4.7 2.3c-1.7 3.7-5.3 6-9.9 6-8 0-11.8-5.1-11.8-11.9 0-6.8 4.3-12 11.6-12 6.7 0 10.7 4.7 10.7 11.9.1.8 0 1.4-.1 2m-15.4-4.4h9.2c-.5-2.7-1.8-4.2-4.5-4.2s-4.1 1.6-4.7 4.2" clip-path="url(#b)" transform="matrix(1.23054 0 0 1.23054 -49.911 -16.091)" style="clip-path:url(#b);fill:#1c0d26"/></g><g aria-label="Offre ACCESSIBILITÉ NUMÉRIQUE" style="font-size:26.5644px;line-height:1.25;font-family:'Barlow Condensed';-inkscape-font-specification:'Barlow Condensed, ';fill:#1c0d26;stroke-width:1.22989"><path d="M218.1 192.693q-.239 0-.292-.239l-.584-3.055q0-.053-.053-.08-.027-.026-.08-.026h-4.33q-.053 0-.106.027-.027.026-.027.08l-.558 3.054q-.026.24-.292.24h-2.019q-.133 0-.212-.08-.053-.08-.027-.213l3.958-18.064q.053-.239.292-.239h2.365q.265 0 .292.24l3.985 18.063v.053q0 .24-.24.24zm-5.02-5.525q0 .106.08.106h3.533q.08 0 .08-.106l-1.807-9.43q-.027-.054-.053-.054-.027 0-.053.054zM226.468 192.906q-2.151 0-3.48-1.302-1.301-1.328-1.301-3.506v-9.43q0-2.179 1.301-3.48 1.329-1.302 3.48-1.302 2.179 0 3.48 1.301 1.328 1.302 1.328 3.48v.425q0 .266-.265.266l-2.02.106q-.265 0-.265-.265v-.691q0-1.09-.637-1.753-.611-.664-1.62-.664-1.01 0-1.621.664t-.611 1.753v9.776q0 1.089.61 1.753.612.664 1.621.664 1.01 0 1.62-.664.638-.664.638-1.753v-.691q0-.266.266-.266l2.019.107q.265 0 .265.265v.399q0 2.178-1.328 3.506-1.302 1.302-3.48 1.302zM238.475 192.906q-2.151 0-3.48-1.302-1.301-1.328-1.301-3.506v-9.43q0-2.179 1.301-3.48 1.329-1.302 3.48-1.302 2.179 0 3.48 1.301 1.328 1.302 1.328 3.48v.425q0 .266-.265.266l-2.02.106q-.265 0-.265-.265v-.691q0-1.09-.637-1.753-.611-.664-1.62-.664-1.01 0-1.621.664t-.611 1.753v9.776q0 1.089.61 1.753.612.664 1.621.664 1.01 0 1.62-.664.638-.664.638-1.753v-.691q0-.266.266-.266l2.019.107q.265 0 .265.265v.399q0 2.178-1.328 3.506-1.301 1.302-3.48 1.302zM254.972 176.037q0 .266-.266.266h-5.977q-.106 0-.106.106v5.765q0 .106.106.106h3.666q.266 0 .266.266v1.673q0 .266-.266.266h-3.666q-.106 0-.106.106v5.791q0 .106.106.106h5.977q.266 0 .266.266v1.674q0 .265-.266.265h-8.368q-.265 0-.265-.265v-18.064q0-.266.265-.266h8.368q.266 0 .266.266zM261.586 192.906q-2.098 0-3.4-1.302-1.275-1.328-1.275-3.453v-.69q0-.267.266-.267h1.965q.266 0 .266.266v.558q0 1.222.611 1.966.611.717 1.567.717.957 0 1.568-.69.637-.718.637-1.86 0-.77-.345-1.355-.319-.584-.877-1.036-.531-.478-1.753-1.381-1.355-1.01-2.125-1.727-.77-.717-1.302-1.727-.531-1.01-.531-2.364 0-2.152 1.275-3.4 1.275-1.275 3.32-1.275 2.126 0 3.4 1.354 1.302 1.355 1.302 3.56v.664q0 .266-.265.266h-1.966q-.266 0-.266-.266v-.717q0-1.195-.61-1.913-.612-.743-1.595-.743-.93 0-1.514.664-.584.637-.584 1.806 0 1.063.584 1.806.585.718 2.258 1.94 1.594 1.195 2.391 1.939.824.744 1.249 1.647.451.876.451 2.098 0 2.232-1.301 3.587-1.302 1.328-3.4 1.328zM272.903 192.906q-2.099 0-3.4-1.302-1.276-1.328-1.276-3.453v-.69q0-.267.266-.267h1.966q.265 0 .265.266v.558q0 1.222.611 1.966.611.717 1.568.717.956 0 1.567-.69.638-.718.638-1.86 0-.77-.346-1.355-.319-.584-.876-1.036-.532-.478-1.754-1.381-1.354-1.01-2.125-1.727-.77-.717-1.301-1.727-.532-1.01-.532-2.364 0-2.152 1.275-3.4 1.275-1.275 3.32-1.275 2.126 0 3.401 1.354 1.302 1.355 1.302 3.56v.664q0 .266-.266.266h-1.966q-.265 0-.265-.266v-.717q0-1.195-.611-1.913-.611-.743-1.594-.743-.93 0-1.514.664-.585.637-.585 1.806 0 1.063.585 1.806.584.718 2.258 1.94 1.594 1.195 2.39 1.939.824.744 1.249 1.647.452.876.452 2.098 0 2.232-1.302 3.587-1.302 1.328-3.4 1.328zM280.447 192.693q-.266 0-.266-.265v-18.064q0-.266.266-.266h2.019q.266 0 .266.266v18.064q0 .265-.266.265zM295.695 187.62q0 2.417-1.381 3.745-1.355 1.328-3.587 1.328h-4.436q-.266 0-.266-.265v-18.064q0-.266.266-.266h4.064q2.418 0 3.773 1.275 1.381 1.249 1.381 3.666 0 2.87-2.045 3.958-.133.08-.027.133 1.062.638 1.647 1.78.61 1.142.61 2.71zm-7.013-11.317q-.106 0-.106.106v5.632q0 .106.106.106h1.7q1.249 0 1.94-.744.69-.77.69-2.125 0-1.408-.69-2.178-.691-.797-1.94-.797zm1.833 14.159q1.222 0 1.913-.824.717-.823.717-2.337 0-1.541-.69-2.391-.692-.877-1.914-.877h-1.86q-.105 0-.105.107v6.216q0 .106.106.106zM298.404 192.693q-.265 0-.265-.265v-18.064q0-.266.265-.266h2.02q.265 0 .265.266v18.064q0 .265-.266.265zM304.249 192.693q-.266 0-.266-.265v-18.064q0-.266.266-.266h2.019q.265 0 .265.266v16.018q0 .106.106.106h5.95q.266 0 .266.266v1.674q0 .265-.265.265zM315.06 192.693q-.265 0-.265-.265v-18.064q0-.266.265-.266h2.02q.265 0 .265.266v18.064q0 .265-.266.265zM329.591 174.098q.266 0 .266.266v1.673q0 .266-.266.266h-3.48q-.106 0-.106.106v16.019q0 .265-.266.265h-2.019q-.265 0-.265-.265v-16.019q0-.106-.107-.106h-3.294q-.265 0-.265-.266v-1.673q0-.266.265-.266zM341.2 176.037q0 .266-.266.266h-5.977q-.106 0-.106.106v5.765q0 .106.106.106h3.666q.266 0 .266.266v1.673q0 .266-.266.266h-3.666q-.106 0-.106.106v5.791q0 .106.106.106h5.977q.266 0 .266.266v1.674q0 .265-.266.265h-8.368q-.265 0-.265-.265v-18.064q0-.266.265-.266h8.368q.266 0 .266.266zm-5.579-3.639q-.16 0-.212-.08-.053-.106.026-.239l1.647-2.869q.133-.186.319-.186h1.62q.16 0 .213.107.053.08-.027.212l-1.965 2.896q-.107.16-.32.16zM356.58 174.364q0-.266.266-.266h1.992q.266 0 .266.266v18.064q0 .265-.266.265h-2.284q-.213 0-.292-.212l-4.516-12.14q-.027-.053-.08-.027-.053 0-.053.053l.026 12.06q0 .266-.265.266h-2.02q-.265 0-.265-.265v-18.064q0-.266.266-.266h2.258q.212 0 .292.213l4.543 12.14q.026.08.08.08.052-.027.052-.107zM367.073 192.906q-2.178 0-3.506-1.435-1.302-1.46-1.302-3.825v-13.282q0-.266.266-.266h2.019q.265 0 .265.266v13.548q0 1.248.611 2.019.638.77 1.647.77 1.036 0 1.647-.77.638-.77.638-2.02v-13.547q0-.266.265-.266h2.02q.265 0 .265.266v13.282q0 2.364-1.328 3.825-1.328 1.435-3.507 1.435zM383.33 174.284q.107-.186.32-.186h2.018q.266 0 .266.266v18.064q0 .265-.266.265h-2.019q-.265 0-.265-.265v-13.176q0-.08-.053-.08-.027 0-.08.053l-2.55 4.755q-.08.186-.24.186-.159 0-.238-.186l-2.524-4.728q-.053-.053-.106-.053-.027 0-.027.08v13.149q0 .265-.265.265h-2.02q-.265 0-.265-.265v-18.064q0-.266.266-.266h2.019q.186 0 .318.186l2.79 4.994q.026.027.08.027.052 0 .079-.027zM398.047 176.037q0 .266-.265.266h-5.977q-.107 0-.107.106v5.765q0 .106.107.106h3.666q.265 0 .265.266v1.673q0 .266-.265.266h-3.666q-.107 0-.107.106v5.791q0 .106.107.106h5.977q.265 0 .265.266v1.674q0 .265-.265.265h-8.368q-.266 0-.266-.265v-18.064q0-.266.266-.266h8.368q.265 0 .265.266zm-5.578-3.639q-.16 0-.213-.08-.053-.106.027-.239l1.647-2.869q.133-.186.319-.186h1.62q.16 0 .213.107.053.08-.027.212l-1.966 2.896q-.106.16-.319.16zM408.009 192.693q-.24 0-.319-.212l-2.444-7.916q-.026-.08-.106-.08h-1.86q-.106 0-.106.106v7.837q0 .265-.265.265h-2.02q-.265 0-.265-.265v-18.064q0-.266.266-.266h4.755q1.355 0 2.39.664 1.037.664 1.594 1.886.585 1.196.585 2.737 0 1.673-.69 2.922-.692 1.222-1.887 1.78-.08.08-.053.159l2.71 8.155.026.106q0 .186-.239.186zm-4.728-16.39q-.107 0-.107.106v5.95q0 .107.107.107h1.965q1.09 0 1.754-.824.664-.85.664-2.23 0-1.435-.664-2.259-.665-.85-1.754-.85zM412.923 192.693q-.265 0-.265-.265v-18.064q0-.266.265-.266h2.02q.265 0 .265.266v18.064q0 .265-.266.265zM422.832 173.886q2.098 0 3.4 1.381t1.302 3.613v9.032q0 1.833-.903 3.134-.904 1.275-2.444 1.674-.08.053-.08.133v2.47q0 .266-.266.266h-2.045q-.266 0-.266-.266v-2.47q0-.08-.08-.133-1.54-.425-2.443-1.7-.877-1.275-.877-3.108v-9.032q0-2.232 1.302-3.613 1.301-1.381 3.4-1.381zm2.152 4.728q0-1.116-.611-1.806-.585-.717-1.541-.717t-1.567.717q-.585.69-.585 1.806v9.563q0 1.116.585 1.833.61.691 1.567.691.956 0 1.54-.69.612-.718.612-1.834zM435.131 192.906q-2.178 0-3.506-1.435-1.302-1.46-1.302-3.825v-13.282q0-.266.266-.266h2.019q.265 0 .265.266v13.548q0 1.248.611 2.019.638.77 1.647.77 1.036 0 1.647-.77.638-.77.638-2.02v-13.547q0-.266.265-.266h2.02q.265 0 .265.266v13.282q0 2.364-1.328 3.825-1.329 1.435-3.507 1.435zM451.734 176.037q0 .266-.266.266h-5.977q-.106 0-.106.106v5.765q0 .106.106.106h3.666q.266 0 .266.266v1.673q0 .266-.266.266h-3.666q-.106 0-.106.106v5.791q0 .106.106.106h5.977q.266 0 .266.266v1.674q0 .265-.266.265H443.1q-.265 0-.265-.265v-18.064q0-.266.265-.266h8.368q.266 0 .266.266z" style="font-weight:500;font-stretch:condensed;-inkscape-font-specification:'Barlow Condensed, Medium Condensed'" transform="translate(-49.859 -39.014)"/></g></svg>
