<svg xmlns="http://www.w3.org/2000/svg" xmlns:xlink="http://www.w3.org/1999/xlink" style="display:none"><symbol  viewBox='0 0 15 16' id='chain'>
    
<path d="M13 10.857c0-0.232-0.089-0.446-0.25-0.607l-1.857-1.857c-0.161-0.161-0.384-0.25-0.607-0.25-0.259 0-0.464 0.098-0.643 0.286 0.295 0.295 0.643 0.545 0.643 1 0 0.473-0.384 0.857-0.857 0.857-0.455 0-0.705-0.348-1-0.643-0.188 0.179-0.295 0.384-0.295 0.652 0 0.223 0.089 0.446 0.25 0.607l1.839 1.848c0.161 0.161 0.384 0.241 0.607 0.241s0.446-0.080 0.607-0.232l1.313-1.304c0.161-0.161 0.25-0.375 0.25-0.598zM6.723 4.563c0-0.223-0.089-0.446-0.25-0.607l-1.839-1.848c-0.161-0.161-0.384-0.25-0.607-0.25s-0.446 0.089-0.607 0.241l-1.313 1.304c-0.161 0.161-0.25 0.375-0.25 0.598 0 0.232 0.089 0.446 0.25 0.607l1.857 1.857c0.161 0.161 0.384 0.241 0.607 0.241 0.259 0 0.464-0.089 0.643-0.277-0.295-0.295-0.643-0.545-0.643-1 0-0.473 0.384-0.857 0.857-0.857 0.455 0 0.705 0.348 1 0.643 0.188-0.179 0.295-0.384 0.295-0.652zM14.714 10.857c0 0.679-0.277 1.339-0.759 1.813l-1.313 1.304c-0.482 0.482-1.134 0.741-1.813 0.741-0.688 0-1.339-0.268-1.821-0.759l-1.839-1.848c-0.482-0.482-0.741-1.134-0.741-1.813 0-0.705 0.286-1.375 0.786-1.866l-0.786-0.786c-0.491 0.5-1.152 0.786-1.857 0.786-0.679 0-1.339-0.268-1.821-0.75l-1.857-1.857c-0.491-0.491-0.75-1.134-0.75-1.821 0-0.679 0.277-1.339 0.759-1.813l1.313-1.304c0.482-0.482 1.134-0.741 1.813-0.741 0.688 0 1.339 0.268 1.821 0.759l1.839 1.848c0.482 0.482 0.741 1.134 0.741 1.813 0 0.705-0.286 1.375-0.786 1.866l0.786 0.786c0.491-0.5 1.152-0.786 1.857-0.786 0.679 0 1.339 0.268 1.821 0.75l1.857 1.857c0.491 0.491 0.75 1.134 0.75 1.821z"></path>

  </symbol><symbol  viewBox='0 0 15 16' id='check-square-o'>
    
<path d="M12.571 8.304v2.839c0 1.42-1.152 2.571-2.571 2.571h-7.429c-1.42 0-2.571-1.152-2.571-2.571v-7.429c0-1.42 1.152-2.571 2.571-2.571h7.429c0.357 0 0.714 0.071 1.045 0.223 0.080 0.036 0.143 0.116 0.161 0.205 0.018 0.098-0.009 0.188-0.080 0.259l-0.438 0.438c-0.054 0.054-0.134 0.089-0.205 0.089-0.027 0-0.054-0.009-0.080-0.018-0.134-0.036-0.268-0.054-0.402-0.054h-7.429c-0.786 0-1.429 0.643-1.429 1.429v7.429c0 0.786 0.643 1.429 1.429 1.429h7.429c0.786 0 1.429-0.643 1.429-1.429v-2.268c0-0.071 0.027-0.143 0.080-0.196l0.571-0.571c0.063-0.063 0.134-0.089 0.205-0.089 0.036 0 0.071 0.009 0.107 0.027 0.107 0.045 0.179 0.143 0.179 0.259zM14.634 3.938l-7.268 7.268c-0.286 0.286-0.732 0.286-1.018 0l-3.839-3.839c-0.286-0.286-0.286-0.732 0-1.018l0.982-0.982c0.286-0.286 0.732-0.286 1.018 0l2.348 2.348 5.777-5.777c0.286-0.286 0.732-0.286 1.018 0l0.982 0.982c0.286 0.286 0.286 0.732 0 1.018z"></path>

  </symbol><symbol  viewBox='0 0 16 16' id='check'>
    
<path d="M14.92 5.054c0 0.223-0.089 0.446-0.25 0.607l-7.679 7.679c-0.161 0.161-0.384 0.25-0.607 0.25s-0.446-0.089-0.607-0.25l-4.446-4.446c-0.161-0.161-0.25-0.384-0.25-0.607s0.089-0.446 0.25-0.607l1.214-1.214c0.161-0.161 0.384-0.25 0.607-0.25s0.446 0.089 0.607 0.25l2.625 2.634 5.857-5.866c0.161-0.161 0.384-0.25 0.607-0.25s0.446 0.089 0.607 0.25l1.214 1.214c0.161 0.161 0.25 0.384 0.25 0.607z"></path>

  </symbol><symbol  viewBox='0 0 13 16' id='close'>
    
<path d="M11.589 11.804c0 0.223-0.089 0.446-0.25 0.607l-1.214 1.214c-0.161 0.161-0.384 0.25-0.607 0.25s-0.446-0.089-0.607-0.25l-2.625-2.625-2.625 2.625c-0.161 0.161-0.384 0.25-0.607 0.25s-0.446-0.089-0.607-0.25l-1.214-1.214c-0.161-0.161-0.25-0.384-0.25-0.607s0.089-0.446 0.25-0.607l2.625-2.625-2.625-2.625c-0.161-0.161-0.25-0.384-0.25-0.607s0.089-0.446 0.25-0.607l1.214-1.214c0.161-0.161 0.384-0.25 0.607-0.25s0.446 0.089 0.607 0.25l2.625 2.625 2.625-2.625c0.161-0.161 0.384-0.25 0.607-0.25s0.446 0.089 0.607 0.25l1.214 1.214c0.161 0.161 0.25 0.384 0.25 0.607s-0.089 0.446-0.25 0.607l-2.625 2.625 2.625 2.625c0.161 0.161 0.25 0.384 0.25 0.607z"></path>

  </symbol><symbol  viewBox='0 0 17 16' id='code'>
    
<path d="M5.509 12.491l-0.446 0.446c-0.116 0.116-0.295 0.116-0.411 0l-4.161-4.161c-0.116-0.116-0.116-0.295 0-0.411l4.161-4.161c0.116-0.116 0.295-0.116 0.411 0l0.446 0.446c0.116 0.116 0.116 0.295 0 0.411l-3.509 3.509 3.509 3.509c0.116 0.116 0.116 0.295 0 0.411zM10.786 2.964l-3.33 11.527c-0.045 0.152-0.205 0.241-0.348 0.196l-0.554-0.152c-0.152-0.045-0.241-0.205-0.196-0.357l3.33-11.527c0.045-0.152 0.205-0.241 0.348-0.196l0.554 0.152c0.152 0.045 0.241 0.205 0.196 0.357zM16.652 8.777l-4.161 4.161c-0.116 0.116-0.295 0.116-0.411 0l-0.446-0.446c-0.116-0.116-0.116-0.295 0-0.411l3.509-3.509-3.509-3.509c-0.116-0.116-0.116-0.295 0-0.411l0.446-0.446c0.116-0.116 0.295-0.116 0.411 0l4.161 4.161c0.116 0.116 0.116 0.295 0 0.411z"></path>

  </symbol><symbol  viewBox='0 0 14 16' id='cog'>
    
<path d="M9.143 8c0-1.259-1.027-2.286-2.286-2.286s-2.286 1.027-2.286 2.286 1.027 2.286 2.286 2.286 2.286-1.027 2.286-2.286zM13.714 7.027v1.982c0 0.134-0.107 0.295-0.25 0.321l-1.652 0.25c-0.098 0.286-0.205 0.554-0.348 0.813 0.304 0.438 0.625 0.83 0.955 1.232 0.054 0.063 0.089 0.143 0.089 0.223s-0.027 0.143-0.080 0.205c-0.214 0.286-1.42 1.598-1.723 1.598-0.080 0-0.161-0.036-0.232-0.080l-1.232-0.964c-0.259 0.134-0.536 0.25-0.813 0.339-0.063 0.545-0.116 1.125-0.259 1.661-0.036 0.143-0.161 0.25-0.321 0.25h-1.982c-0.161 0-0.304-0.116-0.321-0.268l-0.25-1.643c-0.277-0.089-0.545-0.196-0.804-0.33l-1.259 0.955c-0.063 0.054-0.143 0.080-0.223 0.080s-0.161-0.036-0.223-0.098c-0.473-0.429-1.098-0.982-1.473-1.5-0.045-0.063-0.063-0.134-0.063-0.205 0-0.080 0.027-0.143 0.071-0.205 0.304-0.411 0.634-0.804 0.938-1.223-0.152-0.286-0.277-0.58-0.366-0.884l-1.634-0.241c-0.152-0.027-0.259-0.17-0.259-0.321v-1.982c0-0.134 0.107-0.295 0.241-0.321l1.661-0.25c0.089-0.286 0.205-0.554 0.348-0.821-0.304-0.429-0.625-0.83-0.955-1.232-0.054-0.063-0.089-0.134-0.089-0.214s0.036-0.143 0.080-0.205c0.214-0.295 1.42-1.598 1.723-1.598 0.080 0 0.161 0.036 0.232 0.089l1.232 0.955c0.259-0.134 0.536-0.25 0.813-0.339 0.063-0.545 0.116-1.125 0.259-1.661 0.036-0.143 0.161-0.25 0.321-0.25h1.982c0.161 0 0.304 0.116 0.321 0.268l0.25 1.643c0.277 0.089 0.545 0.196 0.804 0.33l1.268-0.955c0.054-0.054 0.134-0.080 0.214-0.080s0.161 0.036 0.223 0.089c0.473 0.438 1.098 0.991 1.473 1.518 0.045 0.054 0.063 0.125 0.063 0.196 0 0.080-0.027 0.143-0.071 0.205-0.304 0.411-0.634 0.804-0.938 1.223 0.152 0.286 0.277 0.58 0.366 0.875l1.634 0.25c0.152 0.027 0.259 0.17 0.259 0.321z"></path>

  </symbol><symbol  viewBox='0 0 15 16' id='columns'>
    
<path d="M1.429 13.714h5.429v-10.286h-5.714v10c0 0.152 0.134 0.286 0.286 0.286zM13.714 13.429v-10h-5.714v10.286h5.429c0.152 0 0.286-0.134 0.286-0.286zM14.857 2.571v10.857c0 0.786-0.643 1.429-1.429 1.429h-12c-0.786 0-1.429-0.643-1.429-1.429v-10.857c0-0.786 0.643-1.429 1.429-1.429h12c0.786 0 1.429 0.643 1.429 1.429z"></path>

  </symbol><symbol  viewBox='0 0 224 448' id='cursor'>
    
<g id="icomoon-ignore">
</g>
<path d="M208 32c-53 0-80 18.75-80 56v104h32v32h-32v136c0 37.25 27 56 80 56h16v32h-16c-45 0-78-13-96-36.5-18 23.5-51 36.5-96 36.5h-16v-32h16c53 0 80-18.75 80-56v-136h-32v-32h32v-104c0-37.25-27-56-80-56h-16v-32h16c45 0 78 13 96 36.5 18-23.5 51-36.5 96-36.5h16v32h-16z"></path>

  </symbol><symbol  viewBox='0 0 17 16' id='desktop'>
    
<path d="M16 8.857v-7.429c0-0.152-0.134-0.286-0.286-0.286h-14.286c-0.152 0-0.286 0.134-0.286 0.286v7.429c0 0.152 0.134 0.286 0.286 0.286h14.286c0.152 0 0.286-0.134 0.286-0.286zM17.143 1.429v9.714c0 0.786-0.643 1.429-1.429 1.429h-4.857c0 0.759 0.571 1.402 0.571 1.714s-0.259 0.571-0.571 0.571h-4.571c-0.313 0-0.571-0.259-0.571-0.571 0-0.33 0.571-0.938 0.571-1.714h-4.857c-0.786 0-1.429-0.643-1.429-1.429v-9.714c0-0.786 0.643-1.429 1.429-1.429h14.286c0.786 0 1.429 0.643 1.429 1.429z"></path>

  </symbol><symbol  viewBox='0 0 16 16' id='exclamation-triangle'>
    
<path d="M9.143 12.277v-1.696c0-0.161-0.125-0.295-0.286-0.295h-1.714c-0.161 0-0.286 0.134-0.286 0.295v1.696c0 0.161 0.125 0.295 0.286 0.295h1.714c0.161 0 0.286-0.134 0.286-0.295zM9.125 8.938l0.161-4.098c0-0.054-0.027-0.125-0.089-0.17-0.054-0.045-0.134-0.098-0.214-0.098h-1.964c-0.080 0-0.161 0.054-0.214 0.098-0.063 0.045-0.089 0.134-0.089 0.188l0.152 4.080c0 0.116 0.134 0.205 0.304 0.205h1.652c0.161 0 0.295-0.089 0.304-0.205zM9 0.598l6.857 12.571c0.196 0.348 0.188 0.777-0.018 1.125s-0.58 0.563-0.982 0.563h-13.714c-0.402 0-0.777-0.214-0.982-0.563s-0.214-0.777-0.018-1.125l6.857-12.571c0.196-0.366 0.58-0.598 1-0.598s0.804 0.232 1 0.598z"></path>

  </symbol><symbol  viewBox='0 0 456 448' id='eyedropper'>
    
<g id="icomoon-ignore">
</g>
<path d="M424.5 23.5c31.25 31.25 31.5 82 0 113l-56.25 55.75 26 26c3.25 3.25 3.25 8.25 0 11.5l-52.5 52.5c-3.25 3.25-8.25 3.25-11.5 0l-26.25-26.25-150.75 150.75c-6 6-14 9.25-22.5 9.25h-50.75l-64 32-16-16 32-64v-50.75c0-8.5 3.25-16.5 9.25-22.5l150.75-150.75-26.25-26.25c-3.25-3.25-3.25-8.25 0-11.5l52.5-52.5c3.25-3.25 8.25-3.25 11.5 0l26 26 55.75-56.25c31-31.5 81.75-31.25 113 0zM128 368l144-144-48-48-144 144v48h48z"></path>

  </symbol><symbol  viewBox='0 0 17 16' id='film'>
    
<path d="M3.429 14.286v-1.143c0-0.313-0.259-0.571-0.571-0.571h-1.143c-0.313 0-0.571 0.259-0.571 0.571v1.143c0 0.313 0.259 0.571 0.571 0.571h1.143c0.313 0 0.571-0.259 0.571-0.571zM3.429 10.857v-1.143c0-0.313-0.259-0.571-0.571-0.571h-1.143c-0.313 0-0.571 0.259-0.571 0.571v1.143c0 0.313 0.259 0.571 0.571 0.571h1.143c0.313 0 0.571-0.259 0.571-0.571zM3.429 7.429v-1.143c0-0.313-0.259-0.571-0.571-0.571h-1.143c-0.313 0-0.571 0.259-0.571 0.571v1.143c0 0.313 0.259 0.571 0.571 0.571h1.143c0.313 0 0.571-0.259 0.571-0.571zM12.571 14.286v-4.571c0-0.313-0.259-0.571-0.571-0.571h-6.857c-0.313 0-0.571 0.259-0.571 0.571v4.571c0 0.313 0.259 0.571 0.571 0.571h6.857c0.313 0 0.571-0.259 0.571-0.571zM3.429 4v-1.143c0-0.313-0.259-0.571-0.571-0.571h-1.143c-0.313 0-0.571 0.259-0.571 0.571v1.143c0 0.313 0.259 0.571 0.571 0.571h1.143c0.313 0 0.571-0.259 0.571-0.571zM16 14.286v-1.143c0-0.313-0.259-0.571-0.571-0.571h-1.143c-0.313 0-0.571 0.259-0.571 0.571v1.143c0 0.313 0.259 0.571 0.571 0.571h1.143c0.313 0 0.571-0.259 0.571-0.571zM12.571 7.429v-4.571c0-0.313-0.259-0.571-0.571-0.571h-6.857c-0.313 0-0.571 0.259-0.571 0.571v4.571c0 0.313 0.259 0.571 0.571 0.571h6.857c0.313 0 0.571-0.259 0.571-0.571zM16 10.857v-1.143c0-0.313-0.259-0.571-0.571-0.571h-1.143c-0.313 0-0.571 0.259-0.571 0.571v1.143c0 0.313 0.259 0.571 0.571 0.571h1.143c0.313 0 0.571-0.259 0.571-0.571zM16 7.429v-1.143c0-0.313-0.259-0.571-0.571-0.571h-1.143c-0.313 0-0.571 0.259-0.571 0.571v1.143c0 0.313 0.259 0.571 0.571 0.571h1.143c0.313 0 0.571-0.259 0.571-0.571zM16 4v-1.143c0-0.313-0.259-0.571-0.571-0.571h-1.143c-0.313 0-0.571 0.259-0.571 0.571v1.143c0 0.313 0.259 0.571 0.571 0.571h1.143c0.313 0 0.571-0.259 0.571-0.571zM17.143 2.571v12c0 0.786-0.643 1.429-1.429 1.429h-14.286c-0.786 0-1.429-0.643-1.429-1.429v-12c0-0.786 0.643-1.429 1.429-1.429h14.286c0.786 0 1.429 0.643 1.429 1.429z"></path>

  </symbol><symbol  viewBox='0 0 17 16' id='flag-o'>
    
<path d="M14.857 9.33v-5.5c-0.714 0.384-1.714 0.813-2.732 0.813v0c-0.473 0-0.911-0.089-1.295-0.286-0.955-0.473-1.991-0.929-3.232-0.929-1.152 0-2.563 0.563-3.598 1.134v5.348c1.179-0.545 2.679-1.009 3.866-1.009 1.375 0 2.268 0.455 3.223 0.929l0.25 0.125c0.25 0.125 0.554 0.196 0.902 0.196 0.991 0 2.063-0.527 2.616-0.821zM2.857 2.286c0 0.42-0.232 0.786-0.571 0.982v11.304c0 0.161-0.125 0.286-0.286 0.286h-0.571c-0.161 0-0.286-0.125-0.286-0.286v-11.304c-0.339-0.196-0.571-0.563-0.571-0.982 0-0.634 0.509-1.143 1.143-1.143s1.143 0.509 1.143 1.143zM16 2.857v6.813c0 0.214-0.125 0.411-0.313 0.509-0.036 0.018-0.089 0.045-0.152 0.080-0.571 0.304-1.92 1.036-3.295 1.036-0.527 0-1-0.107-1.411-0.313l-0.25-0.125c-0.902-0.455-1.616-0.813-2.714-0.813-1.286 0-3.098 0.67-4.143 1.304-0.089 0.054-0.196 0.080-0.295 0.080s-0.196-0.027-0.286-0.071c-0.179-0.107-0.286-0.295-0.286-0.5v-6.625c0-0.196 0.107-0.384 0.277-0.491 0.571-0.339 2.589-1.455 4.464-1.455 1.491 0 2.705 0.545 3.732 1.045 0.232 0.116 0.5 0.17 0.795 0.17 1.054 0 2.214-0.67 2.768-1 0.116-0.063 0.214-0.116 0.277-0.152 0.179-0.089 0.384-0.080 0.554 0.018 0.17 0.107 0.277 0.295 0.277 0.491z"></path>

  </symbol><symbol  viewBox='0 0 32 32' id='flag'>
    
  <path fill-rule="evenodd" d="M9 10.5V30h1V15.57L23 10 9 4v6.5z"></path>

  </symbol><symbol  viewBox='0 0 17 16' id='image'>
    
<path d="M5.714 5.143c0 0.946-0.768 1.714-1.714 1.714s-1.714-0.768-1.714-1.714 0.768-1.714 1.714-1.714 1.714 0.768 1.714 1.714zM14.857 8.571v4h-12.571v-1.714l2.857-2.857 1.429 1.429 4.571-4.571zM15.714 2.286h-14.286c-0.152 0-0.286 0.134-0.286 0.286v10.857c0 0.152 0.134 0.286 0.286 0.286h14.286c0.152 0 0.286-0.134 0.286-0.286v-10.857c0-0.152-0.134-0.286-0.286-0.286zM17.143 2.571v10.857c0 0.786-0.643 1.429-1.429 1.429h-14.286c-0.786 0-1.429-0.643-1.429-1.429v-10.857c0-0.786 0.643-1.429 1.429-1.429h14.286c0.786 0 1.429 0.643 1.429 1.429z"></path>

  </symbol><symbol  viewBox='0 0 16 16' id='list-alt'>
    
<path d="M3.429 10.571v0.571c0 0.152-0.134 0.286-0.286 0.286h-0.571c-0.152 0-0.286-0.134-0.286-0.286v-0.571c0-0.152 0.134-0.286 0.286-0.286h0.571c0.152 0 0.286 0.134 0.286 0.286zM3.429 8.286v0.571c0 0.152-0.134 0.286-0.286 0.286h-0.571c-0.152 0-0.286-0.134-0.286-0.286v-0.571c0-0.152 0.134-0.286 0.286-0.286h0.571c0.152 0 0.286 0.134 0.286 0.286zM3.429 6v0.571c0 0.152-0.134 0.286-0.286 0.286h-0.571c-0.152 0-0.286-0.134-0.286-0.286v-0.571c0-0.152 0.134-0.286 0.286-0.286h0.571c0.152 0 0.286 0.134 0.286 0.286zM13.714 10.571v0.571c0 0.152-0.134 0.286-0.286 0.286h-8.571c-0.152 0-0.286-0.134-0.286-0.286v-0.571c0-0.152 0.134-0.286 0.286-0.286h8.571c0.152 0 0.286 0.134 0.286 0.286zM13.714 8.286v0.571c0 0.152-0.134 0.286-0.286 0.286h-8.571c-0.152 0-0.286-0.134-0.286-0.286v-0.571c0-0.152 0.134-0.286 0.286-0.286h8.571c0.152 0 0.286 0.134 0.286 0.286zM13.714 6v0.571c0 0.152-0.134 0.286-0.286 0.286h-8.571c-0.152 0-0.286-0.134-0.286-0.286v-0.571c0-0.152 0.134-0.286 0.286-0.286h8.571c0.152 0 0.286 0.134 0.286 0.286zM14.857 12.286v-7.429c0-0.152-0.134-0.286-0.286-0.286h-13.143c-0.152 0-0.286 0.134-0.286 0.286v7.429c0 0.152 0.134 0.286 0.286 0.286h13.143c0.152 0 0.286-0.134 0.286-0.286zM16 2.571v9.714c0 0.786-0.643 1.429-1.429 1.429h-13.143c-0.786 0-1.429-0.643-1.429-1.429v-9.714c0-0.786 0.643-1.429 1.429-1.429h13.143c0.786 0 1.429 0.643 1.429 1.429z"></path>

  </symbol><symbol  viewBox='0 0 16 16' id='list-ol'>
    
<path d="M3.402 14.464c0 0.982-0.768 1.536-1.696 1.536-0.563 0-1.134-0.188-1.536-0.589l0.509-0.786c0.241 0.223 0.607 0.402 0.946 0.402 0.313 0 0.643-0.152 0.643-0.509 0-0.5-0.571-0.527-0.938-0.5l-0.232-0.5c0.321-0.411 0.616-0.866 1-1.214v-0.009c-0.286 0-0.58 0.018-0.866 0.018v0.473h-0.946v-1.357h2.973v0.786l-0.848 1.027c0.598 0.143 0.991 0.607 0.991 1.223zM3.42 8.866v1.42h-3.232c-0.027-0.161-0.054-0.321-0.054-0.482 0-1.652 2.018-1.902 2.018-2.652 0-0.304-0.188-0.464-0.482-0.464-0.313 0-0.571 0.268-0.723 0.518l-0.759-0.527c0.295-0.616 0.902-0.964 1.58-0.964 0.83 0 1.545 0.491 1.545 1.375 0 1.321-1.938 1.616-1.964 2.313h1.134v-0.536h0.938zM16 11.714v1.714c0 0.152-0.134 0.286-0.286 0.286h-10.857c-0.161 0-0.286-0.134-0.286-0.286v-1.714c0-0.161 0.125-0.286 0.286-0.286h10.857c0.152 0 0.286 0.125 0.286 0.286zM3.429 3.688v0.884h-2.991v-0.884h0.955c0-0.723 0.009-1.446 0.009-2.17v-0.107h-0.018c-0.098 0.196-0.277 0.33-0.446 0.482l-0.634-0.679 1.214-1.134h0.946v3.607h0.964zM16 7.143v1.714c0 0.152-0.134 0.286-0.286 0.286h-10.857c-0.161 0-0.286-0.134-0.286-0.286v-1.714c0-0.161 0.125-0.286 0.286-0.286h10.857c0.152 0 0.286 0.125 0.286 0.286zM16 2.571v1.714c0 0.152-0.134 0.286-0.286 0.286h-10.857c-0.161 0-0.286-0.134-0.286-0.286v-1.714c0-0.152 0.125-0.286 0.286-0.286h10.857c0.152 0 0.286 0.134 0.286 0.286z"></path>

  </symbol><symbol  viewBox='0 0 16 16' id='list-ul'>
    
<path d="M3.429 12.571c0 0.946-0.768 1.714-1.714 1.714s-1.714-0.768-1.714-1.714 0.768-1.714 1.714-1.714 1.714 0.768 1.714 1.714zM3.429 8c0 0.946-0.768 1.714-1.714 1.714s-1.714-0.768-1.714-1.714 0.768-1.714 1.714-1.714 1.714 0.768 1.714 1.714zM16 11.714v1.714c0 0.152-0.134 0.286-0.286 0.286h-10.857c-0.152 0-0.286-0.134-0.286-0.286v-1.714c0-0.152 0.134-0.286 0.286-0.286h10.857c0.152 0 0.286 0.134 0.286 0.286zM3.429 3.429c0 0.946-0.768 1.714-1.714 1.714s-1.714-0.768-1.714-1.714 0.768-1.714 1.714-1.714 1.714 0.768 1.714 1.714zM16 7.143v1.714c0 0.152-0.134 0.286-0.286 0.286h-10.857c-0.152 0-0.286-0.134-0.286-0.286v-1.714c0-0.152 0.134-0.286 0.286-0.286h10.857c0.152 0 0.286 0.134 0.286 0.286zM16 2.571v1.714c0 0.152-0.134 0.286-0.286 0.286h-10.857c-0.152 0-0.286-0.134-0.286-0.286v-1.714c0-0.152 0.134-0.286 0.286-0.286h10.857c0.152 0 0.286 0.134 0.286 0.286z"></path>

  </symbol><symbol  viewBox='0 0 16 16' id='list'>
    
<path d="M2.286 11.714v1.714c0 0.152-0.134 0.286-0.286 0.286h-1.714c-0.152 0-0.286-0.134-0.286-0.286v-1.714c0-0.152 0.134-0.286 0.286-0.286h1.714c0.152 0 0.286 0.134 0.286 0.286zM2.286 8.286v1.714c0 0.152-0.134 0.286-0.286 0.286h-1.714c-0.152 0-0.286-0.134-0.286-0.286v-1.714c0-0.152 0.134-0.286 0.286-0.286h1.714c0.152 0 0.286 0.134 0.286 0.286zM2.286 4.857v1.714c0 0.152-0.134 0.286-0.286 0.286h-1.714c-0.152 0-0.286-0.134-0.286-0.286v-1.714c0-0.152 0.134-0.286 0.286-0.286h1.714c0.152 0 0.286 0.134 0.286 0.286zM16 11.714v1.714c0 0.152-0.134 0.286-0.286 0.286h-12c-0.152 0-0.286-0.134-0.286-0.286v-1.714c0-0.152 0.134-0.286 0.286-0.286h12c0.152 0 0.286 0.134 0.286 0.286zM2.286 1.429v1.714c0 0.152-0.134 0.286-0.286 0.286h-1.714c-0.152 0-0.286-0.134-0.286-0.286v-1.714c0-0.152 0.134-0.286 0.286-0.286h1.714c0.152 0 0.286 0.134 0.286 0.286zM16 8.286v1.714c0 0.152-0.134 0.286-0.286 0.286h-12c-0.152 0-0.286-0.134-0.286-0.286v-1.714c0-0.152 0.134-0.286 0.286-0.286h12c0.152 0 0.286 0.134 0.286 0.286zM16 4.857v1.714c0 0.152-0.134 0.286-0.286 0.286h-12c-0.152 0-0.286-0.134-0.286-0.286v-1.714c0-0.152 0.134-0.286 0.286-0.286h12c0.152 0 0.286 0.134 0.286 0.286zM16 1.429v1.714c0 0.152-0.134 0.286-0.286 0.286h-12c-0.152 0-0.286-0.134-0.286-0.286v-1.714c0-0.152 0.134-0.286 0.286-0.286h12c0.152 0 0.286 0.134 0.286 0.286z"></path>

  </symbol><symbol  viewBox='0 0 10 16' id='mouse-pointer'>
    
<path d="M10.116 9.313c0.17 0.161 0.214 0.411 0.125 0.616-0.089 0.214-0.295 0.357-0.527 0.357h-3.411l1.795 4.25c0.125 0.295-0.018 0.625-0.304 0.75l-1.58 0.67c-0.295 0.125-0.625-0.018-0.75-0.304l-1.705-4.036-2.786 2.786c-0.107 0.107-0.25 0.17-0.402 0.17-0.071 0-0.152-0.018-0.214-0.045-0.214-0.089-0.357-0.295-0.357-0.527v-13.429c0-0.232 0.143-0.438 0.357-0.527 0.063-0.027 0.143-0.045 0.214-0.045 0.152 0 0.295 0.054 0.402 0.17z"></path>

  </symbol><symbol  viewBox='0 0 16 16' id='paint-brush'>
    
<path d="M14.42 0c0.813 0 1.563 0.607 1.563 1.455 0 0.473-0.188 0.929-0.402 1.348-0.696 1.321-3.036 5.688-4.152 6.714-0.545 0.509-1.188 0.813-1.946 0.813-1.509 0-2.741-1.286-2.741-2.786 0-0.714 0.295-1.411 0.821-1.893l5.696-5.17c0.313-0.286 0.723-0.482 1.161-0.482zM6.304 9.232c0.464 0.902 1.313 1.58 2.295 1.839l0.009 0.634c0.054 2.545-1.714 4.295-4.268 4.295-3.027 0-4.339-2.411-4.339-5.152 0.33 0.223 1.482 1.143 1.857 1.143 0.223 0 0.411-0.125 0.491-0.33 0.759-1.982 1.946-2.339 3.955-2.429z"></path>

  </symbol><symbol  viewBox='0 0 384 448' id='question-circle-o'>
    
<path d="M220 300v40c0 4.5-3.5 8-8 8h-40c-4.5 0-8-3.5-8-8v-40c0-4.5 3.5-8 8-8h40c4.5 0 8 3.5 8 8zM284 176c0 35.5-24.75 49.5-43 59.75-13 7.5-21 12.25-21 20.25v8c0 4.5-3.5 8-8 8h-40c-4.5 0-8-3.5-8-8v-17c0-30.75 22-40.5 39.75-48.5 15-7 24.25-11.75 24.25-23 0-14.5-18.25-25.25-34.75-25.25-8.75 0-18 2.75-23.75 6.75-5.5 3.75-10.75 9.25-20 20.75-1.5 2-3.75 3-6.25 3-1.75 0-3.5-0.5-4.75-1.5l-27-20.5c-3.25-2.5-4-7.25-1.75-10.75 20.5-32.25 49.25-48 87.25-48v0c41 0 87 32.5 87 76zM192 64c-88.25 0-160 71.75-160 160s71.75 160 160 160 160-71.75 160-160-71.75-160-160-160zM384 224c0 106-86 192-192 192s-192-86-192-192 86-192 192-192v0c106 0 192 86 192 192z"></path>

  </symbol><symbol  viewBox='0 0 15 16' id='sidebar'>
    <path d="M1.43 13.714H9.66V3.428H1.144v10c0 .152.134.286.286.286zM13.713 3.43c-9.143 8.38-4.57 4.19 0 0zm1.143-.86V13.43c0 .786-.643 1.43-1.43 1.43h-12c-.785 0-1.428-.644-1.428-1.43V2.57c0-.785.642-1.428 1.428-1.428h12c.786 0 1.43.643 1.43 1.43z"></path>
  </symbol><symbol  viewBox='0 0 15 16' id='table'>
    
<path d="M4.571 12.286v-1.714c0-0.161-0.125-0.286-0.286-0.286h-2.857c-0.161 0-0.286 0.125-0.286 0.286v1.714c0 0.161 0.125 0.286 0.286 0.286h2.857c0.161 0 0.286-0.125 0.286-0.286zM4.571 8.857v-1.714c0-0.161-0.125-0.286-0.286-0.286h-2.857c-0.161 0-0.286 0.125-0.286 0.286v1.714c0 0.161 0.125 0.286 0.286 0.286h2.857c0.161 0 0.286-0.125 0.286-0.286zM9.143 12.286v-1.714c0-0.161-0.125-0.286-0.286-0.286h-2.857c-0.161 0-0.286 0.125-0.286 0.286v1.714c0 0.161 0.125 0.286 0.286 0.286h2.857c0.161 0 0.286-0.125 0.286-0.286zM4.571 5.429v-1.714c0-0.161-0.125-0.286-0.286-0.286h-2.857c-0.161 0-0.286 0.125-0.286 0.286v1.714c0 0.161 0.125 0.286 0.286 0.286h2.857c0.161 0 0.286-0.125 0.286-0.286zM9.143 8.857v-1.714c0-0.161-0.125-0.286-0.286-0.286h-2.857c-0.161 0-0.286 0.125-0.286 0.286v1.714c0 0.161 0.125 0.286 0.286 0.286h2.857c0.161 0 0.286-0.125 0.286-0.286zM13.714 12.286v-1.714c0-0.161-0.125-0.286-0.286-0.286h-2.857c-0.161 0-0.286 0.125-0.286 0.286v1.714c0 0.161 0.125 0.286 0.286 0.286h2.857c0.161 0 0.286-0.125 0.286-0.286zM9.143 5.429v-1.714c0-0.161-0.125-0.286-0.286-0.286h-2.857c-0.161 0-0.286 0.125-0.286 0.286v1.714c0 0.161 0.125 0.286 0.286 0.286h2.857c0.161 0 0.286-0.125 0.286-0.286zM13.714 8.857v-1.714c0-0.161-0.125-0.286-0.286-0.286h-2.857c-0.161 0-0.286 0.125-0.286 0.286v1.714c0 0.161 0.125 0.286 0.286 0.286h2.857c0.161 0 0.286-0.125 0.286-0.286zM13.714 5.429v-1.714c0-0.161-0.125-0.286-0.286-0.286h-2.857c-0.161 0-0.286 0.125-0.286 0.286v1.714c0 0.161 0.125 0.286 0.286 0.286h2.857c0.161 0 0.286-0.125 0.286-0.286zM14.857 2.571v9.714c0 0.786-0.643 1.429-1.429 1.429h-12c-0.786 0-1.429-0.643-1.429-1.429v-9.714c0-0.786 0.643-1.429 1.429-1.429h12c0.786 0 1.429 0.643 1.429 1.429z"></path>

  </symbol><symbol  viewBox='0 0 16 16' id='th-list'>
    
<path d="M4.571 11.143v1.714c0 0.473-0.384 0.857-0.857 0.857h-2.857c-0.473 0-0.857-0.384-0.857-0.857v-1.714c0-0.473 0.384-0.857 0.857-0.857h2.857c0.473 0 0.857 0.384 0.857 0.857zM4.571 6.571v1.714c0 0.473-0.384 0.857-0.857 0.857h-2.857c-0.473 0-0.857-0.384-0.857-0.857v-1.714c0-0.473 0.384-0.857 0.857-0.857h2.857c0.473 0 0.857 0.384 0.857 0.857zM16 11.143v1.714c0 0.473-0.384 0.857-0.857 0.857h-8.571c-0.473 0-0.857-0.384-0.857-0.857v-1.714c0-0.473 0.384-0.857 0.857-0.857h8.571c0.473 0 0.857 0.384 0.857 0.857zM4.571 2v1.714c0 0.473-0.384 0.857-0.857 0.857h-2.857c-0.473 0-0.857-0.384-0.857-0.857v-1.714c0-0.473 0.384-0.857 0.857-0.857h2.857c0.473 0 0.857 0.384 0.857 0.857zM16 6.571v1.714c0 0.473-0.384 0.857-0.857 0.857h-8.571c-0.473 0-0.857-0.384-0.857-0.857v-1.714c0-0.473 0.384-0.857 0.857-0.857h8.571c0.473 0 0.857 0.384 0.857 0.857zM16 2v1.714c0 0.473-0.384 0.857-0.857 0.857h-8.571c-0.473 0-0.857-0.384-0.857-0.857v-1.714c0-0.473 0.384-0.857 0.857-0.857h8.571c0.473 0 0.857 0.384 0.857 0.857z"></path>

  </symbol><symbol  viewBox='0 0 16 16' id='window-maximize'>
    
<path d="M2.286 12.571h11.429v-6.857h-11.429v6.857zM16 2.571v10.857c0 0.786-0.643 1.429-1.429 1.429h-13.143c-0.786 0-1.429-0.643-1.429-1.429v-10.857c0-0.786 0.643-1.429 1.429-1.429h13.143c0.786 0 1.429 0.643 1.429 1.429z"></path>

  </symbol><symbol  viewBox='0 0 16 16' id='window-minimize'>
    
<path d="M16 11.714v1.714c0 0.786-0.643 1.429-1.429 1.429h-13.143c-0.786 0-1.429-0.643-1.429-1.429v-1.714c0-0.786 0.643-1.429 1.429-1.429h13.143c0.786 0 1.429 0.643 1.429 1.429z"></path>

  </symbol><symbol  viewBox='0 0 18 16' id='window-restore'>
    
<path d="M2.286 13.714h6.857v-4.571h-6.857v4.571zM11.429 9.143h4.571v-6.857h-6.857v2.286h0.857c0.786 0 1.429 0.643 1.429 1.429v3.143zM18.286 1.429v8.571c0 0.786-0.643 1.429-1.429 1.429h-5.429v3.143c0 0.786-0.643 1.429-1.429 1.429h-8.571c-0.786 0-1.429-0.643-1.429-1.429v-8.571c0-0.786 0.643-1.429 1.429-1.429h5.429v-3.143c0-0.786 0.643-1.429 1.429-1.429h8.571c0.786 0 1.429 0.643 1.429 1.429z"></path>

  </symbol></svg>